<?xml version="1.0" encoding="UTF-8" ?>
<svg version="1.1" width="16" height="16" xmlns="http://www.w3.org/2000/svg" shape-rendering="crispEdges">
<rect x="8" y="0" width="1" height="2" fill="#FFFFFF" />
<rect x="0" y="1" width="8" height="1" fill="#FFFFFF" />
<rect x="9" y="1" width="7" height="1" fill="#FFFFFF" />
<rect x="0" y="2" width="1" height="2" fill="#FFFFFF" />
<rect x="15" y="2" width="1" height="2" fill="#FFFFFF" />
<rect x="3" y="4" width="9" height="1" fill="#FFFFFF" />
<rect x="10" y="5" width="3" height="1" fill="#FFFFFF" />
<rect x="8" y="6" width="2" height="1" fill="#FFFFFF" />
<rect x="7" y="7" width="2" height="1" fill="#FFFFFF" />
<rect x="8" y="8" width="1" height="7" fill="#FFFFFF" />
<rect x="2" y="10" width="6" height="1" fill="#FFFFFF" />
<rect x="9" y="10" width="5" height="1" fill="#FFFFFF" />
<rect x="5" y="13" width="1" height="1" fill="#FFFFFF" />
<rect x="6" y="14" width="2" height="1" fill="#FFFFFF" />
<rect x="7" y="15" width="1" height="1" fill="#FFFFFF" />
</svg>